<svg viewBox="0 0 512 512" xml:space="preserve" xmlns="http://www.w3.org/2000/svg"><path d="M349.852 343.15c-49.875 49.916-131.083 49.916-181 0-49.916-49.918-49.916-131.125 0-181.021 13.209-13.187 29.312-23.25 47.832-29.812 5.834-2.042 12.293-.562 16.625 3.792 4.376 4.375 5.855 10.833 3.793 16.625-12.542 35.375-4 73.666 22.25 99.917 26.209 26.228 64.5 34.75 99.916 22.25 5.792-2.062 12.271-.582 16.625 3.793 4.376 4.332 5.834 10.812 3.771 16.625-6.521 18.519-16.604 34.622-29.812 47.831zM191.477 184.754c-37.438 37.438-37.438 98.354 0 135.771 40 40.021 108.125 36.416 143-8.168-35.959 2.25-71.375-10.729-97.75-37.084-26.375-26.354-39.333-61.771-37.084-97.729a90.21 90.21 0 0 0-8.166 7.21z" fill="#e8e8e8" class="fill-1d1d1b"></path></svg>